<?xml version="1.0" standalone="no"?>
<!DOCTYPE svg PUBLIC "-//W3C//DTD SVG 20010904//EN"
 "http://www.w3.org/TR/2001/REC-SVG-20010904/DTD/svg10.dtd">
<svg version="1.0" xmlns="http://www.w3.org/2000/svg"
 width="700.000000pt" height="700.000000pt" viewBox="0 0 700.000000 700.000000"
 preserveAspectRatio="xMidYMid meet">
<metadata>
Created by potrace 1.11, written by Peter Selinger 2001-2013
</metadata>
<g transform="translate(0.000000,700.000000) scale(0.100000,-0.100000)"
fill="#000000" stroke="none">
<path d="M3400 6409 c-233 -35 -436 -209 -506 -434 l-25 -81 -58 -2 c-235 -7
-543 -155 -717 -345 -138 -152 -226 -322 -270 -523 -15 -71 -17 -151 -15 -816
l3 -738 -77 0 c-111 0 -161 -16 -211 -65 -52 -53 -64 -101 -64 -264 l0 -119
-30 -12 c-41 -17 -50 -37 -50 -115 0 -57 3 -69 25 -90 13 -14 32 -25 41 -25
14 0 16 -8 11 -55 -7 -67 -42 -145 -90 -203 -42 -50 -46 -76 -16 -93 30 -15
62 10 116 90 55 80 72 142 75 260 1 53 5 -151 8 -454 6 -535 7 -552 29 -625
34 -111 104 -239 179 -325 37 -42 76 -91 87 -109 51 -82 113 -136 192 -166
l57 -21 1407 0 1408 0 59 24 c68 27 105 55 148 110 16 22 66 78 110 127 90 97
141 176 185 287 52 131 59 206 59 627 l0 381 24 -50 c30 -63 78 -130 110 -150
19 -13 29 -14 45 -5 30 16 26 42 -16 92 -48 58 -83 136 -90 203 -5 47 -3 55
11 55 9 0 28 11 41 25 22 21 25 33 25 90 0 78 -9 98 -50 115 l-30 12 0 119 c0
163 -12 211 -64 264 -50 49 -100 65 -211 65 l-77 0 3 738 c2 667 0 745 -15
816 -103 472 -473 809 -952 869 l-96 12 -24 77 c-92 292 -392 474 -704 427z
m291 -207 c113 -54 206 -154 243 -260 l15 -42 -449 0 -449 0 14 41 c44 123
148 226 280 276 52 20 75 23 170 20 100 -2 116 -6 176 -35z m-1731 -1191 c14
-27 13 -51 -3 -51 -13 0 -37 40 -37 60 0 18 29 10 40 -9z m1160 -136 c0 -24
-5 -35 -15 -35 -10 0 -15 11 -15 35 0 24 5 35 15 35 10 0 15 -11 15 -35z
m-462 -2127 c16 -16 16 -120 0 -136 -17 -17 -44 -15 -62 4 -19 19 -22 114 -4
132 7 7 21 12 33 12 12 0 26 -5 33 -12z m992 -1098 l0 -50 -145 0 -145 0 0 50
0 50 145 0 145 0 0 -50z"/>
</g>
</svg>
